<svg width="48" height="48" viewBox="0 0 48 48" fill="none" xmlns="http://www.w3.org/2000/svg">
<path fill-rule="evenodd" clip-rule="evenodd" d="M19.7751 20.905C19.806 20.9003 19.837 20.8955 19.8679 20.8905C19.8764 20.9112 19.885 20.9319 19.8937 20.9526C19.8543 20.9365 19.8147 20.9207 19.7751 20.905ZM5.71586 23.9003C4.65053 22.7426 4 21.1973 4 19.5C4 16.0731 6.65193 13.2656 10.0155 13.0178C10.0052 12.8465 10 12.6739 10 12.5C10 7.80558 13.8056 4 18.5 4C20.9078 4 23.0818 5.00114 24.6283 6.60987C26.347 5.5873 28.3549 5 30.5 5C36.8513 5 42 10.1487 42 16.5C42 19.0161 41.1919 21.3435 39.8212 23.2368C42.9085 24.939 45 28.2252 45 32C45 37.5228 40.5228 42 35 42C31.7301 42 28.8267 40.4305 27.0021 38.0038C25.0421 42.6997 20.4065 46 15 46C7.8203 46 2 40.1797 2 33C2 29.4571 3.4173 26.2451 5.71586 23.9003Z" fill="#E4941B"/>
<path fill-rule="evenodd" clip-rule="evenodd" d="M21.8146 25.0478C21.8369 25.0444 21.8592 25.041 21.8815 25.0374C21.8876 25.0523 21.8939 25.0672 21.9001 25.0821C21.8717 25.0705 21.8432 25.0591 21.8146 25.0478ZM11.6789 27.2072C10.9108 26.3726 10.4419 25.2585 10.4419 24.0349C10.4419 21.5644 12.3537 19.5403 14.7786 19.3617C14.7712 19.2382 14.7674 19.1137 14.7674 18.9884C14.7674 15.604 17.511 12.8605 20.8954 12.8605C22.6312 12.8605 24.1985 13.5822 25.3135 14.742C26.5525 14.0048 28.0001 13.5814 29.5465 13.5814C34.1253 13.5814 37.8372 17.2933 37.8372 21.8721C37.8372 23.686 37.2547 25.3639 36.2664 26.7289C38.4922 27.956 40 30.3252 40 33.0465C40 37.0281 36.7723 40.2558 32.7907 40.2558C30.4333 40.2558 28.3402 39.1243 27.0248 37.3748C25.6117 40.7602 22.2698 43.1395 18.3721 43.1395C13.196 43.1395 9 38.9435 9 33.7675C9 31.2132 10.0218 28.8977 11.6789 27.2072Z" fill="#FFE926"/>
<path fill-rule="evenodd" clip-rule="evenodd" d="M23.2393 28.855C23.2556 28.8526 23.2718 28.85 23.2879 28.8474C23.2924 28.8583 23.2969 28.8691 23.3015 28.8799C23.2808 28.8715 23.2601 28.8632 23.2393 28.855ZM15.875 30.424C15.317 29.8176 14.9762 29.0081 14.9762 28.1191C14.9762 26.324 16.3653 24.8534 18.1272 24.7236C18.1218 24.6339 18.1191 24.5435 18.1191 24.4524C18.1191 21.9934 20.1125 20 22.5714 20C23.8327 20 24.9714 20.5244 25.7815 21.3671C26.6818 20.8314 27.7335 20.5238 28.8572 20.5238C32.184 20.5238 34.881 23.2208 34.881 26.5476C34.881 27.8656 34.4577 29.0847 33.7397 30.0764C35.3569 30.968 36.4524 32.6894 36.4524 34.6667C36.4524 37.5596 34.1072 39.9047 31.2143 39.9047C29.5015 39.9047 27.9807 39.0826 27.0249 37.8115C25.9982 40.2712 23.5701 42 20.7381 42C16.9773 42 13.9286 38.9513 13.9286 35.1905C13.9286 33.3346 14.671 31.6522 15.875 30.424Z" fill="#E4941B"/>
<path d="M6.5 8L3.5 5M41.5 8L45 4.5M26 3.5V1" stroke="#E4941B"/>
</svg>
