<svg width="48" height="48" viewBox="0 0 48 48" fill="none" xmlns="http://www.w3.org/2000/svg">
<path d="M21 16.5C19 17.3 16.5 16.8333 15 16.5C14.1667 15.1667 12.3 12.4 11.5 12C10.5 11.5 9.5 12.5 9.5 15C9.5 17.5 10.5 20.5 12.5 20.5C14.5 20.5 22.5 20 25 20.5C27.5 21 33.5 17.5 31 16C28.5 14.5 23.5 15.5 21 16.5Z" fill="#599CBA"/>
<path d="M9.5 17.5C9.16667 15.6667 9 12 11 12C13.5 12 14 16.5 15 16.5M31.5 16C29.5 15 25 14 21.5 16.5" stroke="black" stroke-width="0.5"/>
<path d="M12.5 29.5C17.5 39 4 38 0 38V48H48V38C24 38 28 33.5 28 29.5C28 25.5949 39.5 14 36 13.5C32.5 13 29.5 20 25.5 20.5C21.5 21 22.5 15 18 15C13.5 15 16 20.5 12.5 20.5C9 20.5 10.5 15.5 6.5 15C2.5 14.5 7.5 20 12.5 29.5Z" fill="#BADAE7"/>
<path d="M0 38C4 38 17.5 39 12.5 29.5C7.5 20 2.5 14.5 6.5 15C10.5 15.5 9 20.5 12.5 20.5C16 20.5 13.5 15 18 15C22.5 15 21.5 21 25.5 20.5C29.5 20 32.5 13 36 13.5C39.5 14 29.5 25.5 28 29.5C26.5955 33.2453 24 38 48 38" stroke="black" stroke-width="0.5"/>
<path d="M32 11.3987C32 9.39872 32.6 5.79872 35 7.39872C37.4 8.99872 34 10.7321 32 11.3987Z" fill="#BAD9E7" stroke="black" stroke-width="0.5"/>
<path d="M30.5 5.5C30.5 4.13597 30.8137 1.68071 32.0684 2.77193C33.3232 3.86316 31.5456 5.04532 30.5 5.5Z" fill="#BAD9E7" stroke="black" stroke-width="0.5"/>
<path d="M6.05694 10.1138C4.17934 9.87946 0.853552 9.02593 2.57115 7.4862C4.28875 5.94648 5.61068 8.59635 6.05694 10.1138Z" fill="#BAD9E7" stroke="black" stroke-width="0.5"/>
</svg>
