<svg width="144" height="48" viewBox="0 0 144 48" fill="none" xmlns="http://www.w3.org/2000/svg">
<g clip-path="url(#clip0_5_3519)">
<path d="M6.64192 35.1233C7.31238 35.1233 7.8559 35.0067 7.8559 34.8629C7.8559 34.7191 7.31238 34.6025 6.64192 34.6025C5.97146 34.6025 5.42795 34.7191 5.42795 34.8629C5.42795 35.0067 5.97146 35.1233 6.64192 35.1233Z" fill="#6C6B6B"/>
<path d="M6.64192 34.6242C6.92373 34.6242 7.18387 34.6459 7.37898 34.6676L7.22723 34.2987L7.50904 33.626H6.70695L6.27339 34.6459C6.40346 34.6242 6.51185 34.6242 6.64192 34.6242Z" fill="#252626"/>
<path d="M5.73144 34.711C5.73144 34.6025 5.75312 34.4723 5.79648 34.3855C5.81816 34.3421 5.86151 34.277 5.88319 34.2336C5.92655 34.1902 5.9699 34.1468 5.99158 34.1034C6.01326 34.06 6.03494 33.9949 6.01326 33.9515C5.94822 33.7779 5.70977 33.9298 5.64473 34.0383C5.60137 34.1034 5.5797 34.1685 5.5797 34.2336V34.7544C5.62305 34.7327 5.68809 34.711 5.73144 34.711Z" fill="#393939"/>
<path d="M5.90518 35.5139C5.86182 35.4705 5.84014 35.4054 5.81847 35.362C5.77511 35.2535 5.75343 35.145 5.75343 35.0365C5.6884 35.0148 5.64504 35.0148 5.60168 34.9931V35.5139C5.60168 35.579 5.62336 35.6658 5.66672 35.7092C5.73175 35.8177 5.97021 35.9696 6.03525 35.796C6.05692 35.7526 6.03525 35.6875 6.01357 35.6441C5.99189 35.6007 5.94853 35.5573 5.90518 35.5139Z" fill="#393939"/>
<path d="M9.67686 35.1233C10.3473 35.1233 10.8908 35.0067 10.8908 34.8629C10.8908 34.7191 10.3473 34.6025 9.67686 34.6025C9.0064 34.6025 8.46288 34.7191 8.46288 34.8629C8.46288 35.0067 9.0064 35.1233 9.67686 35.1233Z" fill="#6C6B6B"/>
<path d="M9.67686 34.6242C9.95867 34.6242 10.2188 34.6459 10.4139 34.6676L10.2622 34.2987L10.544 33.626H9.74189L9.30833 34.6459C9.41672 34.6242 9.54679 34.6242 9.67686 34.6242Z" fill="#252626"/>
<path d="M8.7447 34.711C8.7447 34.6025 8.76638 34.4723 8.80973 34.3855C8.83141 34.3421 8.87477 34.277 8.89644 34.2336C8.9398 34.1902 8.98316 34.1468 9.00483 34.1034C9.02651 34.06 9.04819 33.9949 9.02651 33.9515C8.96148 33.7779 8.72302 33.9298 8.65799 34.0383C8.61463 34.1034 8.59295 34.1685 8.59295 34.2336V34.7544C8.65799 34.7327 8.70134 34.711 8.7447 34.711Z" fill="#393939"/>
<path d="M8.91843 35.5139C8.87508 35.4705 8.8534 35.4054 8.83172 35.362C8.78837 35.2535 8.76669 35.145 8.76669 35.0365C8.70165 35.0148 8.6583 35.0148 8.61494 34.9931V35.5139C8.61494 35.579 8.63662 35.6658 8.67998 35.7092C8.74501 35.8177 8.98347 35.9696 9.0485 35.796C9.07018 35.7526 9.0485 35.6875 9.02682 35.6441C9.00515 35.6007 8.96179 35.5573 8.91843 35.5139Z" fill="#393939"/>
<path d="M3.80209 31.7598H133.957C133.957 31.7598 134.348 28.418 137.708 27.333C137.708 27.333 141.393 26.2914 142 23.861H35.5172C35.5172 23.861 35.5388 26.6386 31.0298 26.5735L3 26.7688L3.80209 31.7598Z" fill="#6C6B6B"/>
<path d="M5.99158 31.7598L6.38178 33.6043H11.2594L12.9502 35.9913H132.071C132.071 35.9913 136.797 36.4036 133.979 31.7381H5.99158V31.7598Z" fill="#2E2F2F"/>
<path d="M63.3518 23.861H47.787V25.2281H63.3518V23.861Z" fill="#393939"/>
<path d="M32.2654 28.0708H14.4894V30.2408H32.2654V28.0708Z" fill="#393939"/>
<path d="M14.4894 30.2408L14.9663 28.7435H32.2654V28.0708H14.4894V30.2408Z" fill="#2E2F2F"/>
<path d="M124.614 23.861H123.747V31.7598H124.614V23.861Z" fill="#444444"/>
<path d="M96.1725 23.861H95.3054V31.7598H96.1725V23.861Z" fill="#444444"/>
<path d="M67.7525 23.861H66.8854V31.7598H67.7525V23.861Z" fill="#444444"/>
<path d="M39.3108 23.861H38.4437V31.7598H39.3108V23.861Z" fill="#444444"/>
<path d="M108.746 29.5464H42.6276V31.7598H108.746V29.5464Z" fill="#393939"/>
<path d="M55.5477 23.861L56.9785 22.1467H82.1467L83.0572 23.861H55.5477Z" fill="#2E2F2F"/>
<path d="M76.7056 12.2731H70.0287H63.3302L61.2057 22.1467H70.0287H78.83L76.7056 12.2731Z" fill="#6C6B6B"/>
<path d="M70.5273 12.2731H68.5763V22.1467H70.5273V12.2731Z" fill="#444444"/>
<path d="M77.5944 11.3617H62.3546V12.2731H77.5944V11.3617Z" fill="#2E2F2F"/>
<path d="M91.4466 20.2154H84.0327V23.861H91.4466V20.2154Z" fill="#2E2F2F"/>
<path d="M92.4222 19.2171H82.6237V20.2371H92.4222V19.2171Z" fill="#444444"/>
<path d="M88.6935 14.7686H84.0327V19.2171H88.6935V14.7686Z" fill="#2E2F2F"/>
<path d="M85.4635 7.41229H85.2684H85.0516H84.8565L84.6831 14.7686H85.0516H85.2684H85.6369L85.4635 7.41229Z" fill="#6C6B6B"/>
<path d="M85.8754 7H84.4663V7.4123H85.8754V7Z" fill="#444444"/>
<path d="M84.8565 15.3328H84.3796V16.2008H84.8565V15.3328Z" fill="#6C6B6B"/>
<path d="M84.8565 20.9532H84.3796V21.8212H84.8565V20.9532Z" fill="#6C6B6B"/>
<path d="M85.6369 20.9532H85.16V21.8212H85.6369V20.9532Z" fill="#6C6B6B"/>
<path d="M86.4173 20.9532H85.9404V21.8212H86.4173V20.9532Z" fill="#6C6B6B"/>
<path d="M87.1978 20.9532H86.7208V21.8212H87.1978V20.9532Z" fill="#6C6B6B"/>
<path d="M87.9782 20.9532H87.5012V21.8212H87.9782V20.9532Z" fill="#6C6B6B"/>
<path d="M88.7586 20.9532H88.2817V21.8212H88.7586V20.9532Z" fill="#6C6B6B"/>
<path d="M89.539 20.9532H89.0621V21.8212H89.539V20.9532Z" fill="#6C6B6B"/>
<path d="M90.3194 20.9532H89.8425V21.8212H90.3194V20.9532Z" fill="#6C6B6B"/>
<path d="M91.0998 20.9532H90.6229V21.8212H91.0998V20.9532Z" fill="#6C6B6B"/>
<path d="M85.7236 15.3328H85.2467V16.2008H85.7236V15.3328Z" fill="#6C6B6B"/>
<path d="M86.6124 15.3328H86.1355V16.2008H86.6124V15.3328Z" fill="#6C6B6B"/>
<path d="M87.4796 15.3328H87.0026V16.2008H87.4796V15.3328Z" fill="#6C6B6B"/>
<path d="M88.3684 15.3328H87.8914V16.2008H88.3684V15.3328Z" fill="#6C6B6B"/>
<path d="M61.856 19.1086H57.9323L58.1274 19.6294H61.7477L61.856 19.1086Z" fill="#444444"/>
<path d="M59.905 16.0489V16.5697H62.398L62.5281 16.0489H59.905Z" fill="#444444"/>
<path d="M51.082 23.861V22.6024L51.9925 21.6259H55.0058C55.3093 21.6259 55.5694 21.8646 55.5694 22.1901V23.861H51.082Z" fill="#2E2F2F"/>
<path d="M51.082 23.2968L44.2101 23.1232V22.7543L51.082 22.6024V23.2968Z" fill="#6C6B6B"/>
</g>
<defs>
<clipPath id="clip0_5_3519">
<rect width="139" height="29" fill="white" transform="translate(3 7)"/>
</clipPath>
</defs>
</svg>
