<svg width="192" height="48" viewBox="0 0 192 48" fill="none" xmlns="http://www.w3.org/2000/svg">
<g clip-path="url(#clip0_5_3518)">
<path d="M10.3026 45.9809C11.2359 45.9809 11.9924 45.8179 11.9924 45.6169C11.9924 45.4159 11.2359 45.2529 10.3026 45.2529C9.36931 45.2529 8.61273 45.4159 8.61273 45.6169C8.61273 45.8179 9.36931 45.9809 10.3026 45.9809Z" fill="#6C6B6B"/>
<path d="M10.3026 45.2529C10.6949 45.2529 11.057 45.2832 11.3286 45.3136L11.1173 44.7979L11.5096 43.8576H10.3931L9.7896 45.2832C9.97066 45.2529 10.1215 45.2529 10.3026 45.2529Z" fill="#252626"/>
<path d="M9.0352 45.3742C9.0352 45.2226 9.06537 45.0406 9.12573 44.9192C9.1559 44.8586 9.21625 44.7676 9.24643 44.7069C9.30678 44.6463 9.36713 44.5856 9.39731 44.5249C9.42749 44.4643 9.45766 44.3733 9.42748 44.3126C9.33696 44.07 9.00502 44.2823 8.91449 44.4339C8.85414 44.5249 8.82397 44.6159 8.82397 44.7069V45.4349C8.88432 45.4045 8.94467 45.4045 9.0352 45.3742Z" fill="#393939"/>
<path d="M9.2766 46.4965C9.21625 46.4358 9.18607 46.3448 9.1559 46.2842C9.09555 46.1325 9.06537 45.9808 9.06537 45.8292C8.97484 45.7989 8.91449 45.7989 8.85414 45.7685V46.4965C8.85414 46.5875 8.88431 46.7088 8.94467 46.7695C9.03519 46.9211 9.36713 47.1334 9.45766 46.8908C9.48783 46.8301 9.45766 46.7391 9.42748 46.6785C9.36713 46.6178 9.30678 46.5571 9.2766 46.4965Z" fill="#393939"/>
<path d="M14.4065 45.9809C15.3398 45.9809 16.0964 45.8179 16.0964 45.6169C16.0964 45.4159 15.3398 45.2529 14.4065 45.2529C13.4732 45.2529 12.7167 45.4159 12.7167 45.6169C12.7167 45.8179 13.4732 45.9809 14.4065 45.9809Z" fill="#6C6B6B"/>
<path d="M14.4065 45.2529C14.7988 45.2529 15.1609 45.2832 15.4325 45.3136L15.2213 44.7979L15.6136 43.8576H14.497L13.8935 45.2832C14.0444 45.2529 14.2255 45.2529 14.4065 45.2529Z" fill="#252626"/>
<path d="M13.1391 45.3742C13.1391 45.2226 13.1693 45.0406 13.2297 44.9192C13.2598 44.8586 13.3202 44.7676 13.3504 44.7069C13.4107 44.6463 13.4711 44.5856 13.5013 44.5249C13.5314 44.4643 13.5616 44.3733 13.5314 44.3126C13.4409 44.07 13.109 44.2823 13.0184 44.4339C12.9581 44.5249 12.9279 44.6159 12.9279 44.7069V45.4349C12.9883 45.4045 13.0486 45.4045 13.1391 45.3742Z" fill="#393939"/>
<path d="M13.3504 46.4965C13.29 46.4358 13.2598 46.3448 13.2297 46.2842C13.1693 46.1325 13.1391 45.9808 13.1391 45.8292C13.0486 45.7989 12.9883 45.7989 12.9279 45.7685V46.4965C12.9279 46.5875 12.9581 46.7088 13.0184 46.7695C13.109 46.9211 13.4409 47.1334 13.5314 46.8908C13.5616 46.8301 13.5314 46.7391 13.5013 46.6785C13.4711 46.6178 13.4107 46.5571 13.3504 46.4965Z" fill="#393939"/>
<path d="M187.617 32.6349L186.168 36.5174L184.478 40.9761L183.392 43.8577H5.35373L3 40.9761V37.852H20.8038V35.3345L26.6882 35.3648L28.2875 32.6349H187.617Z" fill="#6C6B6B"/>
<path d="M135.141 31.1183H76.6898V32.6349H135.141V31.1183Z" fill="#444444"/>
<path d="M120.867 25.5677H87.523V31.1183H120.867V25.5677Z" fill="#6C6B6B"/>
<path d="M104.391 17.8634H95.9421V25.5677H104.391V17.8634Z" fill="#444444"/>
<path d="M116.552 21.9582H104.391V25.5677H116.552V21.9582Z" fill="#2E2F2F"/>
<path d="M113.836 4.18387H112.026V21.9582H113.836V4.18387Z" fill="#444444"/>
<path d="M115.647 4.18388H110.155L109.25 2H116.552L115.647 4.18388Z" fill="#2E2F2F"/>
<path d="M82.0913 30.1478H79.1642V31.1184H82.0913V30.1478Z" fill="#2E2F2F"/>
<path d="M82.1215 30.1477C82.3327 29.8444 82.4836 29.4501 82.4836 29.0558C82.4836 28.0245 81.6688 27.2056 80.6428 27.2056C79.6169 27.2056 78.8021 28.0245 78.8021 29.0558C78.8021 29.4804 78.9228 29.8444 79.1642 30.1477H82.1215Z" fill="#6C6B6B"/>
<path d="M125.515 30.1478H122.587V31.1184H125.515V30.1478Z" fill="#2E2F2F"/>
<path d="M125.545 30.1477C125.756 29.8444 125.907 29.4501 125.907 29.0558C125.907 28.0245 125.092 27.2056 124.066 27.2056C123.04 27.2056 122.225 28.0245 122.225 29.0558C122.225 29.4804 122.346 29.8444 122.587 30.1477H125.545Z" fill="#6C6B6B"/>
<path d="M97.4509 18.834H96.787V20.108H97.4509V18.834Z" fill="#6C6B6B"/>
<path d="M88.8809 26.3563H88.217V27.6302H88.8809V26.3563Z" fill="#444444"/>
<path d="M90.0879 26.3563H89.4241V27.6302H90.0879V26.3563Z" fill="#444444"/>
<path d="M91.295 26.3563H90.6311V27.6302H91.295V26.3563Z" fill="#444444"/>
<path d="M92.502 26.3563H91.8381V27.6302H92.502V26.3563Z" fill="#444444"/>
<path d="M93.7091 26.3563H93.0452V27.6302H93.7091V26.3563Z" fill="#444444"/>
<path d="M94.9161 26.3563H94.2522V27.6302H94.9161V26.3563Z" fill="#444444"/>
<path d="M96.1231 26.3563H95.4593V27.6302H96.1231V26.3563Z" fill="#444444"/>
<path d="M97.3302 26.3563H96.6663V27.6302H97.3302V26.3563Z" fill="#444444"/>
<path d="M98.5372 26.3563H97.8733V27.6302H98.5372V26.3563Z" fill="#444444"/>
<path d="M99.7442 26.3563H99.0804V27.6302H99.7442V26.3563Z" fill="#444444"/>
<path d="M100.951 26.3563H100.287V27.6302H100.951V26.3563Z" fill="#444444"/>
<path d="M102.158 26.3563H101.494V27.6302H102.158V26.3563Z" fill="#444444"/>
<path d="M103.365 26.3563H102.701V27.6302H103.365V26.3563Z" fill="#444444"/>
<path d="M104.572 26.3563H103.909V27.6302H104.572V26.3563Z" fill="#444444"/>
<path d="M105.779 26.3563H105.116V27.6302H105.779V26.3563Z" fill="#444444"/>
<path d="M106.986 26.3563H106.323V27.6302H106.986V26.3563Z" fill="#444444"/>
<path d="M108.194 26.3563H107.53V27.6302H108.194V26.3563Z" fill="#444444"/>
<path d="M109.401 26.3563H108.737V27.6302H109.401V26.3563Z" fill="#444444"/>
<path d="M110.608 26.3563H109.944V27.6302H110.608V26.3563Z" fill="#444444"/>
<path d="M111.815 26.3563H111.151V27.6302H111.815V26.3563Z" fill="#444444"/>
<path d="M113.022 26.3563H112.358V27.6302H113.022V26.3563Z" fill="#444444"/>
<path d="M114.229 26.3563H113.565V27.6302H114.229V26.3563Z" fill="#444444"/>
<path d="M115.436 26.3563H114.772V27.6302H115.436V26.3563Z" fill="#444444"/>
<path d="M116.643 26.3563H115.979V27.6302H116.643V26.3563Z" fill="#444444"/>
<path d="M117.85 26.3563H117.186V27.6302H117.85V26.3563Z" fill="#444444"/>
<path d="M119.057 26.3563H118.393V27.6302H119.057V26.3563Z" fill="#444444"/>
<path d="M120.264 26.3563H119.6V27.6302H120.264V26.3563Z" fill="#444444"/>
<path d="M98.9295 18.834H98.2656V20.108H98.9295V18.834Z" fill="#6C6B6B"/>
<path d="M100.438 18.834H99.7744V20.108H100.438V18.834Z" fill="#6C6B6B"/>
<path d="M101.917 18.834H101.253V20.108H101.917V18.834Z" fill="#6C6B6B"/>
<path d="M103.396 18.834H102.732V20.108H103.396V18.834Z" fill="#6C6B6B"/>
<path d="M184.478 40.9761L183.392 43.8576H5.35373L3 40.9761H184.478Z" fill="#444444"/>
<path d="M187.617 32.6349L186.168 36.5174H64.891L57.4677 32.6349H187.617Z" fill="#2E2F2F"/>
<path d="M51.9153 35.3648H34.8658V38.2463H51.9153V35.3648Z" fill="#393939"/>
<path d="M34.8658 38.2463L35.922 36.5174H51.9153V35.3648H34.8658V38.2463Z" fill="#2E2F2F"/>
<path d="M172.016 32.6349L181.37 30.6331H186.802V32.6349H172.016Z" fill="#444444"/>
<path d="M86.1651 31.1184L86.678 4.18387H87.523V31.1184H86.1651Z" fill="#2E2F2F"/>
<path d="M86.4668 15.0426L82.725 10.2805H83.3889L86.4668 14.1023V15.0426Z" fill="#6C6B6B"/>
<path d="M17.4241 43.8576L19.5364 46.5875H184.478H186.651C187.104 46.5875 187.526 46.3752 187.768 45.9808C188.371 45.0709 187.737 43.8576 186.651 43.8576H183.392H17.4241Z" fill="#2E2F2F"/>
</g>
<defs>
<clipPath id="clip0_5_3518">
<rect width="185" height="45" fill="white" transform="translate(3 2)"/>
</clipPath>
</defs>
</svg>
