<svg width="240" height="48" viewBox="0 0 240 48" fill="none" xmlns="http://www.w3.org/2000/svg">
<path d="M4 23.6963L4.57921 25.2663L6.35303 29.8338L9.03187 29.8695L12.4709 37.2202H220.189C224.714 30.5831 230.217 27.0505 233.909 25.2663C236.371 24.0888 238 23.6963 238 23.6963H4Z" fill="#6C6B6B"/>
<path d="M220.189 37.2202C220.189 37.2202 218.198 39.4326 222.217 39.5753H224.027C224.787 39.5753 225.511 39.9678 225.909 40.5744C226.886 42.0374 225.8 44 224.027 44H27.3855L24.0913 39.0757H14.2447L12.4709 37.1845H220.189V37.2202Z" fill="#2E2F2F"/>
<path d="M4 23.6963L4.57921 25.2663H233.873C236.335 24.0888 237.964 23.6963 237.964 23.6963H4Z" fill="#2E2F2F"/>
<path d="M175.844 25.2663L167.843 34.7224H29.3041L25.8651 25.2663H175.844Z" fill="#444444"/>
<path d="M9.03187 29.8338H27.5303L26.6615 27.4787H5.44802L6.35303 29.8338H9.03187Z" fill="#444444"/>
<path d="M118.357 29.6197H87.0439V34.7224H118.357V29.6197Z" fill="#393939"/>
<path d="M178.595 23.6963L177.581 21.9478H169.545L167.662 20.0923H163.391L161.834 17.8442H157.019L155.608 23.6963H178.595Z" fill="#738181"/>
<path d="M172.224 17.8442L174.106 21.9478H169.545L167.662 20.0923H163.391L161.834 17.8442H172.224Z" fill="#444444"/>
<path d="M157.02 17.8442L157.816 13.7407H173.672V14.6327L172.224 17.8442H157.02Z" fill="#6C6B6B"/>
<path d="M165.563 8.35248L164.296 13.7406H170.269L167.988 8.35248H165.563Z" fill="#738181"/>
<path d="M168.929 3H164.911V8.38816H168.929V3Z" fill="#444444"/>
<path d="M164.187 14.5614H163.391V15.3821H164.187V14.5614Z" fill="#444444"/>
<path d="M164.187 16.1671H163.391V16.9878H164.187V16.1671Z" fill="#444444"/>
<path d="M165.201 16.1671H164.404V16.9878H165.201V16.1671Z" fill="#444444"/>
<path d="M166.251 16.1671H165.454V16.9878H166.251V16.1671Z" fill="#444444"/>
<path d="M167.264 16.1671H166.468V16.9878H167.264V16.1671Z" fill="#444444"/>
<path d="M165.201 14.5614H164.404V15.3821H165.201V14.5614Z" fill="#444444"/>
<path d="M166.251 14.5614H165.454V15.3821H166.251V14.5614Z" fill="#444444"/>
<path d="M167.264 14.5614H166.468V15.3821H167.264V14.5614Z" fill="#444444"/>
<path d="M168.314 14.5614H167.518V15.3821H168.314V14.5614Z" fill="#444444"/>
<path d="M169.328 14.5614H168.531V15.3821H169.328V14.5614Z" fill="#444444"/>
<path d="M169.328 16.1671H168.531V16.9878H169.328V16.1671Z" fill="#444444"/>
<path d="M170.341 16.1671H169.545V16.9878H170.341V16.1671Z" fill="#444444"/>
<path d="M171.391 16.1671H170.595V16.9878H171.391V16.1671Z" fill="#444444"/>
<path d="M170.341 14.5614H169.545V15.3821H170.341V14.5614Z" fill="#444444"/>
<path d="M171.391 14.5614H170.595V15.3821H171.391V14.5614Z" fill="#444444"/>
<path d="M172.405 14.5614H171.608V15.3821H172.405V14.5614Z" fill="#444444"/>
<path d="M118.394 34.7224L116.511 31.0113H87.0439V29.6197H118.394V34.7224Z" fill="#2E2F2F"/>
<path d="M49.5764 26.8007H33.0328V30.4404H49.5764V26.8007Z" fill="#393939"/>
<path d="M49.5764 30.4404L48.3094 28.1567H33.0328V26.8007H49.5764V30.4404Z" fill="#2E2F2F"/>
<path d="M87.6593 14.0975H91.6052H95.5148L96.0216 15.8816L93.9582 23.6963H91.6052H89.216L87.1525 15.8816L87.6593 14.0975Z" fill="#738181"/>
<path d="M95.1166 19.3429L97.6145 23.6962H93.9582L95.1166 19.3429Z" fill="#444444"/>
<path d="M106.085 21.8051H96.5285L97.6145 23.6963H109.162L106.085 21.8051Z" fill="#6C6B6B"/>
<path d="M88.0937 19.3429L85.5597 23.6962H89.216L88.0937 19.3429Z" fill="#444444"/>
<path d="M77.125 21.8051H86.6819L85.5597 23.6963H74.048L77.125 21.8051Z" fill="#6C6B6B"/>
<path d="M96.0216 15.8816H87.1525L87.6593 14.0975H95.5148L96.0216 15.8816Z" fill="#6C6B6B"/>
<path d="M92.4378 8.67361L94.3202 14.0975H88.7091L89.8676 11.7067L88.8901 8.67361H92.4378Z" fill="#444444"/>
<path d="M91.7138 7.6745H89.4332V8.67363H91.7138V7.6745Z" fill="#6C6B6B"/>
<path d="M94.465 5.10532L95.6235 7.67451H88.0213L86.6095 5.10532H94.465Z" fill="#444444"/>
<path d="M180.839 25.2663L167.843 34.7224L175.844 25.2663H180.839Z" fill="#4D4E4E"/>
<path d="M190.867 27.3003H178.052L173.889 30.3333H187.717L190.867 27.3003Z" fill="#444444"/>
<path d="M219.864 31.5109L219.393 28.8347H215.483L214.832 29.584L218.741 29.5483L219.864 31.5109Z" fill="#2E2F2F"/>
<path d="M16.1996 41.8233C17.4391 41.8233 18.444 41.6156 18.444 41.3595C18.444 41.1033 17.4391 40.8956 16.1996 40.8956C14.96 40.8956 13.9551 41.1033 13.9551 41.3595C13.9551 41.6156 14.96 41.8233 16.1996 41.8233Z" fill="#6C6B6B"/>
<path d="M16.1996 40.8956C16.7064 40.8956 17.177 40.9312 17.5752 41.0026L17.2856 40.3246L17.7924 39.0757H16.3082L15.5118 40.8956C15.7652 40.8956 15.9824 40.8956 16.1996 40.8956Z" fill="#252626"/>
<path d="M14.5341 41.0383C14.5341 40.8242 14.5703 40.6101 14.6789 40.4317C14.7151 40.3246 14.7875 40.2532 14.8599 40.1462C14.9323 40.0748 15.0047 40.0035 15.0409 39.9321C15.0771 39.8607 15.1133 39.7537 15.0771 39.6466C14.9685 39.3255 14.4979 39.6109 14.3893 39.7894C14.3169 39.8964 14.2807 40.0391 14.2807 40.1462V41.074C14.3169 41.1096 14.4255 41.074 14.5341 41.0383Z" fill="#393939"/>
<path d="M14.8239 42.537C14.7515 42.4656 14.7153 42.3585 14.6429 42.2515C14.5343 42.0731 14.4981 41.859 14.4981 41.6449C14.3895 41.6092 14.3171 41.6092 14.2447 41.5735V42.5013C14.2447 42.644 14.2809 42.7511 14.3533 42.8581C14.4619 43.0365 14.9325 43.322 15.0412 43.0008C15.0774 42.8938 15.0411 42.8224 15.0049 42.7154C14.9687 42.6797 14.8963 42.6083 14.8239 42.537Z" fill="#393939"/>
<path d="M21.6296 41.8233C22.8692 41.8233 23.8741 41.6156 23.8741 41.3595C23.8741 41.1033 22.8692 40.8956 21.6296 40.8956C20.3901 40.8956 19.3852 41.1033 19.3852 41.3595C19.3852 41.6156 20.3901 41.8233 21.6296 41.8233Z" fill="#6C6B6B"/>
<path d="M21.6296 40.8956C22.1364 40.8956 22.6071 40.9312 23.0053 41.0026L22.7157 40.3246L23.2225 39.0757H21.7382L20.9418 40.8956C21.159 40.8956 21.3762 40.8956 21.6296 40.8956Z" fill="#252626"/>
<path d="M19.9282 41.0383C19.9282 40.8242 19.9644 40.6101 20.073 40.4317C20.1092 40.3246 20.1816 40.2532 20.254 40.1462C20.3264 40.0748 20.3988 40.0035 20.435 39.9321C20.4712 39.8607 20.5074 39.7537 20.4712 39.6466C20.3626 39.3255 19.892 39.6109 19.7834 39.7894C19.711 39.8964 19.6748 40.0391 19.6748 40.1462V41.074C19.7472 41.1096 19.8196 41.074 19.9282 41.0383Z" fill="#393939"/>
<path d="M20.254 42.537C20.1816 42.4656 20.1454 42.3585 20.073 42.2515C19.9644 42.0731 19.9282 41.859 19.9282 41.6449C19.8196 41.6092 19.7472 41.6092 19.6748 41.5735V42.5013C19.6748 42.644 19.711 42.7511 19.7834 42.8581C19.892 43.0365 20.3626 43.322 20.4712 43.0008C20.5074 42.8938 20.4712 42.8224 20.435 42.7154C20.3988 42.6797 20.3264 42.6083 20.254 42.537Z" fill="#393939"/>
<path d="M94.5012 16.3098H93.922V17.309H94.5012V16.3098Z" fill="#444444"/>
<path d="M93.6324 16.3098H93.0532V17.309H93.6324V16.3098Z" fill="#444444"/>
<path d="M92.7636 16.3098H92.1844V17.309H92.7636V16.3098Z" fill="#444444"/>
<path d="M91.8948 16.3098H91.3156V17.309H91.8948V16.3098Z" fill="#444444"/>
<path d="M91.026 16.3098H90.4468V17.309H91.026V16.3098Z" fill="#444444"/>
<path d="M90.1572 16.3098H89.578V17.309H90.1572V16.3098Z" fill="#444444"/>
<path d="M89.2884 16.3098H88.7091V17.309H89.2884V16.3098Z" fill="#444444"/>
<path d="M94.5012 14.49H93.922V15.4891H94.5012V14.49Z" fill="#444444"/>
<path d="M93.6324 14.49H93.0532V15.4891H93.6324V14.49Z" fill="#444444"/>
<path d="M92.7636 14.49H92.1844V15.4891H92.7636V14.49Z" fill="#444444"/>
<path d="M91.8948 14.49H91.3156V15.4891H91.8948V14.49Z" fill="#444444"/>
<path d="M91.026 14.49H90.4468V15.4891H91.026V14.49Z" fill="#444444"/>
<path d="M90.1572 14.49H89.578V15.4891H90.1572V14.49Z" fill="#444444"/>
<path d="M89.2884 14.49H88.7091V15.4891H89.2884V14.49Z" fill="#444444"/>
</svg>
