<svg width="144" height="48" viewBox="0 0 144 48" fill="none" xmlns="http://www.w3.org/2000/svg">
<path d="M141 20.8186V29.7998C141 29.7998 133.9 34.7235 101.973 35.9772H5.18799V14.6412H101.951C133.878 15.9177 141 20.8186 141 20.8186Z" fill="#444444"/>
<path d="M5.188 16.7612H3V34.3816H5.188V16.7612Z" fill="#2E2F2F"/>
<path d="M54.3286 20.5223H80.1157C81.1873 20.5223 82.0357 19.6333 82.0357 18.5619C82.0357 17.4906 81.165 16.6016 80.1157 16.6016H54.3286C53.2569 16.6016 52.4085 17.4906 52.4085 18.5619C52.4085 19.6333 53.2569 20.5223 54.3286 20.5223Z" fill="#6C6B6B"/>
<path d="M63.4378 20.0436H77.6598C78.4635 20.0436 79.111 19.3826 79.111 18.5619C79.111 17.7413 78.4635 17.0803 77.6598 17.0803H63.4378C62.634 17.0803 61.9866 17.7413 61.9866 18.5619C61.9866 19.3826 62.634 20.0436 63.4378 20.0436Z" fill="#393939"/>
<path d="M69.1757 18.9723H77.8384C78.084 18.9723 78.2849 18.7671 78.2849 18.5164C78.2849 18.2656 78.084 18.0605 77.8384 18.0605H69.1757C68.9301 18.0605 68.7292 18.2656 68.7292 18.5164C68.7292 18.7671 68.9301 18.9723 69.1757 18.9723Z" fill="#2E2F2F"/>
<path d="M83.7996 20.8414H89.8054C91.1003 20.8414 92.172 19.7701 92.172 18.4252C92.172 17.1031 91.1226 16.0089 89.8054 16.0089H83.7996V20.8414Z" fill="#2E2F2F"/>
<path d="M87.5504 16.5788H84.4024V20.2488H87.5504V16.5788Z" fill="#6C6B6B"/>
<path d="M89.2472 17.9009H85.4294V18.8355H89.2472V17.9009Z" fill="#738181"/>
<path d="M103.38 17.4906V17.9009V18.2884L95.5879 18.4024V17.9009V17.3766L103.38 17.4906Z" fill="#6C6B6B"/>
<path d="M96.615 16.442H92.8418V19.3598H96.615V16.442Z" fill="#2E2F2F"/>
<path d="M92.8418 13H76.789V14.664H92.8418V13Z" fill="#2E2F2F"/>
<path d="M141 21.8216H5.21033V22.6878H141V21.8216Z" fill="#2E2F2F"/>
<path d="M141 27.4975H5.21033V28.3637H141V27.4975Z" fill="#2E2F2F"/>
<path d="M140.576 24.7166H138.232V25.2408H140.576V24.7166Z" fill="#6C6B6B"/>
<path d="M137.071 24.7166H134.726V25.2408H137.071V24.7166Z" fill="#6C6B6B"/>
<path d="M133.543 24.7166H131.199V25.2408H133.543V24.7166Z" fill="#6C6B6B"/>
<path d="M130.038 24.7166H127.693V25.2408H130.038V24.7166Z" fill="#6C6B6B"/>
<path d="M126.51 24.7166H124.166V25.2408H126.51V24.7166Z" fill="#6C6B6B"/>
<path d="M123.005 24.7166H120.661V25.2408H123.005V24.7166Z" fill="#6C6B6B"/>
<path d="M119.477 24.7166H117.133V25.2408H119.477V24.7166Z" fill="#6C6B6B"/>
<path d="M115.972 24.7166H113.628V25.2408H115.972V24.7166Z" fill="#6C6B6B"/>
<path d="M112.444 24.7166H110.1V25.2408H112.444V24.7166Z" fill="#6C6B6B"/>
<path d="M108.939 24.7166H106.595V25.2408H108.939V24.7166Z" fill="#6C6B6B"/>
<path d="M105.412 24.7166H103.067V25.2408H105.412V24.7166Z" fill="#6C6B6B"/>
<path d="M101.906 24.7166H99.562V25.2408H101.906V24.7166Z" fill="#6C6B6B"/>
<path d="M98.3788 24.7166H96.0345V25.2408H98.3788V24.7166Z" fill="#6C6B6B"/>
<path d="M94.8735 24.7166H92.5292V25.2408H94.8735V24.7166Z" fill="#6C6B6B"/>
<path d="M91.3459 24.7166H89.0016V25.2408H91.3459V24.7166Z" fill="#6C6B6B"/>
<path d="M87.8406 24.7166H85.4964V25.2408H87.8406V24.7166Z" fill="#6C6B6B"/>
<path d="M84.313 24.7166H81.9688V25.2408H84.313V24.7166Z" fill="#6C6B6B"/>
<path d="M80.8078 24.7166H78.4635V25.2408H80.8078V24.7166Z" fill="#6C6B6B"/>
<path d="M77.2802 24.7166H74.9359V25.2408H77.2802V24.7166Z" fill="#6C6B6B"/>
<path d="M73.775 24.7166H71.4307V25.2408H73.775V24.7166Z" fill="#6C6B6B"/>
<path d="M70.2474 24.7166H67.9031V25.2408H70.2474V24.7166Z" fill="#6C6B6B"/>
<path d="M66.7421 24.7166H64.3978V25.2408H66.7421V24.7166Z" fill="#6C6B6B"/>
<path d="M63.2145 24.7166H60.8703V25.2408H63.2145V24.7166Z" fill="#6C6B6B"/>
<path d="M59.7093 24.7166H57.365V25.2408H59.7093V24.7166Z" fill="#6C6B6B"/>
<path d="M56.1817 24.7166H53.8374V25.2408H56.1817V24.7166Z" fill="#6C6B6B"/>
<path d="M52.6764 24.7166H50.3321V25.2408H52.6764V24.7166Z" fill="#6C6B6B"/>
<path d="M49.1488 24.7166H46.8046V25.2408H49.1488V24.7166Z" fill="#6C6B6B"/>
<path d="M45.6436 24.7166H43.2993V25.2408H45.6436V24.7166Z" fill="#6C6B6B"/>
<path d="M42.116 24.7166H39.7717V25.2408H42.116V24.7166Z" fill="#6C6B6B"/>
<path d="M38.6107 24.7166H36.2665V25.2408H38.6107V24.7166Z" fill="#6C6B6B"/>
<path d="M35.0832 24.7166H32.7389V25.2408H35.0832V24.7166Z" fill="#6C6B6B"/>
<path d="M31.5779 24.7166H29.2336V25.2408H31.5779V24.7166Z" fill="#6C6B6B"/>
<path d="M28.0503 24.7166H25.706V25.2408H28.0503V24.7166Z" fill="#6C6B6B"/>
<path d="M24.5451 24.7166H22.2008V25.2408H24.5451V24.7166Z" fill="#6C6B6B"/>
<path d="M21.0175 24.7166H18.6732V25.2408H21.0175V24.7166Z" fill="#6C6B6B"/>
<path d="M17.5122 24.7166H15.1679V25.2408H17.5122V24.7166Z" fill="#6C6B6B"/>
<path d="M13.9846 24.7166H11.6404V25.2408H13.9846V24.7166Z" fill="#6C6B6B"/>
<path d="M10.4794 24.7166H8.13509V25.2408H10.4794V24.7166Z" fill="#6C6B6B"/>
<path d="M73.5517 30.2557V36H73.9982V30.7116H95.8335V36H96.2801V30.2557H73.5517Z" fill="#BE1E2D"/>
<path d="M69.6446 30.2557V36H69.198V30.7116H35.9316L26.5098 36H25.5944L35.8199 30.2557H69.6446Z" fill="#BEB647"/>
<path d="M9.07281 31.669V36H9.51934V32.1249H19.9681V36H20.4147V31.669H9.07281Z" fill="#BE1E2D"/>
</svg>
