<svg width="96" height="48" viewBox="0 0 96 48" fill="none" xmlns="http://www.w3.org/2000/svg">
<g clip-path="url(#clip0_5_3521)">
<path d="M8.01866 41.9641C8.79392 41.9641 9.4224 41.8046 9.4224 41.6078C9.4224 41.411 8.79392 41.2514 8.01866 41.2514C7.2434 41.2514 6.61493 41.411 6.61493 41.6078C6.61493 41.8046 7.2434 41.9641 8.01866 41.9641Z" fill="#6C6B6B"/>
<path d="M8.01866 41.2769C8.34453 41.2769 8.64533 41.3023 8.87093 41.3532L8.69546 40.8442L9.02133 39.9025H8.09386L7.59253 41.2769C7.74293 41.2769 7.86826 41.2769 8.01866 41.2769Z" fill="#252626"/>
<path d="M6.96587 41.3787C6.96587 41.226 6.99093 41.0733 7.04107 40.9205C7.06613 40.8442 7.11627 40.7678 7.14133 40.7169C7.19147 40.666 7.2416 40.6151 7.26667 40.5388C7.29173 40.4624 7.3168 40.386 7.29173 40.3351C7.21653 40.0806 6.9408 40.3097 6.8656 40.437C6.81547 40.5133 6.7904 40.6151 6.7904 40.7169V41.4296C6.84053 41.4296 6.89067 41.4041 6.96587 41.3787Z" fill="#393939"/>
<path d="M7.16697 42.4986C7.11683 42.4477 7.09177 42.3713 7.0667 42.295C7.01657 42.1423 6.9915 41.9895 6.9915 41.8368C6.9163 41.8114 6.86617 41.8114 6.81603 41.7859V42.4986C6.81603 42.6004 6.8411 42.7022 6.89123 42.7786C6.96643 42.9313 7.24217 43.1349 7.31737 42.8804C7.34244 42.804 7.31737 42.7277 7.2923 42.6768C7.24217 42.6004 7.19203 42.5495 7.16697 42.4986Z" fill="#393939"/>
<path d="M95 30.5615L85.5749 39.9025H5.98827L5.01067 35.0665H1V31.2487H10.0741L12.6309 30.5615H95Z" fill="#6C6B6B"/>
<path d="M10.1744 39.9279L10.5003 42.3968L85.5749 42.2441V39.9279H10.1744Z" fill="#2E2F2F"/>
<path d="M68.0032 30.5615L64.0928 32.0886L54.016 36.0337H29.4507V30.5615H68.0032Z" fill="#444444"/>
<path d="M24.9637 35.2192H8.54507V38.2481H24.9637V35.2192Z" fill="#393939"/>
<path d="M8.54507 38.2735L9.4224 36.0337H24.9637V35.2192H8.54507V38.2735Z" fill="#2E2F2F"/>
<path d="M65.5968 31.5032H94.0475L95 30.5615H68.0032L65.5968 31.5032Z" fill="#444444"/>
<path d="M10.5253 32.0886L12.8315 31.1978H28.6736V32.0886H10.5253Z" fill="#444444"/>
<path d="M68.0032 30.5615L64.0928 32.0886H29.4507V30.5615H68.0032Z" fill="#2E2F2F"/>
<path d="M52.7627 26.3109H35.7675V30.5615H52.7627V26.3109Z" fill="#6C6B6B"/>
<path d="M54.6928 21.3732H35.7675V26.3109H54.6928V21.3732Z" fill="#444444"/>
<path d="M36.7451 21.9586H36.2187V23.0785H36.7451V21.9586Z" fill="#6C6B6B"/>
<path d="M37.7728 21.9586H37.2464V23.0785H37.7728V21.9586Z" fill="#6C6B6B"/>
<path d="M38.8005 21.9586H38.2741V23.0785H38.8005V21.9586Z" fill="#6C6B6B"/>
<path d="M39.8032 21.9586H39.2768V23.0785H39.8032V21.9586Z" fill="#6C6B6B"/>
<path d="M40.8309 21.9586H40.3045V23.0785H40.8309V21.9586Z" fill="#6C6B6B"/>
<path d="M41.8336 21.9586H41.3072V23.0785H41.8336V21.9586Z" fill="#6C6B6B"/>
<path d="M42.8613 21.9586H42.3349V23.0785H42.8613V21.9586Z" fill="#6C6B6B"/>
<path d="M43.8891 21.9586H43.3627V23.0785H43.8891V21.9586Z" fill="#6C6B6B"/>
<path d="M44.8917 21.9586H44.3653V23.0785H44.8917V21.9586Z" fill="#6C6B6B"/>
<path d="M45.9195 21.9586H45.3931V23.0785H45.9195V21.9586Z" fill="#6C6B6B"/>
<path d="M46.9472 21.9586H46.4208V23.0785H46.9472V21.9586Z" fill="#6C6B6B"/>
<path d="M47.9499 21.9586H47.4235V23.0785H47.9499V21.9586Z" fill="#6C6B6B"/>
<path d="M48.9776 21.9586H48.4512V23.0785H48.9776V21.9586Z" fill="#6C6B6B"/>
<path d="M49.9803 21.9586H49.4539V23.0785H49.9803V21.9586Z" fill="#6C6B6B"/>
<path d="M51.008 21.9586H50.4816V23.0785H51.008V21.9586Z" fill="#6C6B6B"/>
<path d="M52.0357 21.9586H51.5093V23.0785H52.0357V21.9586Z" fill="#6C6B6B"/>
<path d="M53.0384 21.9586H52.512V23.0785H53.0384V21.9586Z" fill="#6C6B6B"/>
<path d="M54.0661 21.9586H53.5397V23.0785H54.0661V21.9586Z" fill="#6C6B6B"/>
<path d="M39.0512 27.5072H36.7701V30.536H39.0512V27.5072Z" fill="#444444"/>
<path d="M52.7627 29.3398H40.104V30.5615H52.7627V29.3398Z" fill="#444444"/>
<path d="M47.1728 6.81448H46.9472H46.6213H46.4208L45.9195 21.3732H46.6213H46.9472H47.6491L47.1728 6.81448Z" fill="#2E2F2F"/>
<path d="M47.7995 6H45.7941V6.81447H47.7995V6Z" fill="#444444"/>
<path d="M37.096 17.3772H36.6448V21.3732H37.096V17.3772Z" fill="#6C6B6B"/>
<path d="M47.4485 15.1374H48.6267L49.0277 13.7884H49.2533L48.8773 15.5955H47.4736L47.4485 15.1374Z" fill="#6C6B6B"/>
<path d="M46.1451 15.1374H44.9669L44.5659 13.7884H44.3403L44.7163 15.5955H46.12L46.1451 15.1374Z" fill="#6C6B6B"/>
</g>
<defs>
<clipPath id="clip0_5_3521">
<rect width="94" height="37" fill="white" transform="translate(1 6)"/>
</clipPath>
</defs>
</svg>
