<svg width="48" height="48" viewBox="0 0 48 48" fill="none" xmlns="http://www.w3.org/2000/svg">
<path d="M0 0H48V48H0V0Z" fill="#CDECF9"/>
<path d="M48 26C42.1667 26 30 26 26 26C21 26 20 19.5 14 19.5C18 25.9 7.33333 26.5 1 26H0" stroke="white"/>
<path d="M48 39.5C42.1667 39.5 40 39.5 36 39.5C31 39.5 30 33 24 33C28 39.4 17.3333 40 11 39.5H0" stroke="white"/>
<path d="M48 13.5C42.1667 13.5 46 13.5 42 13.5C37 13.5 36 7 30 7C34 13.4 22.3333 14 16 13.5H0" stroke="white"/>
<path d="M0 0V-0.5H-0.5V0H0ZM48 0H48.5V-0.5H48V0ZM48 48V48.5H48.5V48H48ZM0 48H-0.5V48.5H0V48ZM0 0.5H48V-0.5H0V0.5ZM47.5 0V48H48.5V0H47.5ZM48 47.5H0V48.5H48V47.5ZM0.5 48V0H-0.5V48H0.5Z" fill="white"/>
</svg>
